<svg width="40" height="40" viewBox="0 0 40 40" xmlns="http://www.w3.org/2000/svg"><path d="M5.414 0h29.172A5.414 5.414 0 0 1 40 5.414v29.172A5.414 5.414 0 0 1 34.586 40H5.414A5.414 5.414 0 0 1 0 34.586V5.414A5.414 5.414 0 0 1 5.414 0zM28.46 13H11.428l8.516 8.71L28.459 13zm1.434.828a.685.685 0 0 1-.19.399l-9.104 9.31a.656.656 0 0 1-.655.173.656.656 0 0 1-.656-.173l-9.104-9.31a.68.68 0 0 1-.14-.211 1.395 1.395 0 0 0-.044.348v12.272c0 .753.597 1.364 1.333 1.364h17.334c.736 0 1.333-.61 1.333-1.364V14.364c0-.19-.038-.372-.107-.536z" fill="#00B2EF" fill-rule="evenodd"/></svg>