<svg xmlns="http://www.w3.org/2000/svg" width="982" height="981.2" viewBox="0 0 982 981.2"><circle fill="#FFF" stroke="#000" stroke-miterlimit="10" cx="492.5" cy="500.7" r="374"/><path fill="#00B2EF" d="M459.23 1.4c-74.21 7.42-123.76 20.59-181.94 48.83C76.69 147.19-33.67 371.26 11.58 589.58 42.22 738 141.09 865.12 277.3 931.43c154.64 75.17 339.93 63.44 482.6-30.88 206.84-136.45 279.85-401.22 172.13-624.09C862.13 131.87 723.76 30.13 563.85 5.95 540.63 2.36 477.19-.51 459.23 1.4zm79.48 248.73c45.24 8.62 87.14 28.97 117.3 56.97l7.66 7.18 11.49-9.81c6.22-5.27 21.78-20.11 34.23-32.56 12.45-12.69 23.46-22.98 24.42-22.98 1.2 0 1.92 43.57 1.92 96.95v96.96h-96.95c-53.38 0-96.95-.72-96.95-1.44s15.08-16.76 33.51-35.91c18.43-19.15 33.51-35.67 33.51-36.87 0-4.55-23.7-22.02-41.89-30.88-25.85-12.93-45.48-17.48-73.01-17.71-45.24 0-81.87 15.32-115.15 48.36-20.35 20.35-32.08 37.34-41.89 61.28l-4.79 11.97-39.98.72c-46.44.72-43.81 2.87-33.75-27.29 22.74-69.9 77.32-127.12 146.74-153.45 38.06-14.6 93.12-19.15 133.58-11.49zM406.09 575.22l-34.95 34.23 15.32 11.49c48.6 36.63 102.94 45.96 158.71 27.53 43.57-14.36 83.79-52.67 101.02-95.99l4.55-11.49h40.22c31.6 0 39.98.72 39.98 3.11 0 6.22-12.21 38.78-20.59 55.54-24.66 48.36-62.96 86.18-112.27 110.12-42.13 20.59-56.74 23.94-106.53 23.94-35.67-.24-44.77-.96-61.04-5.5-34.23-9.58-68.71-28.73-105.57-59.13l-7.42-5.98-34.95 35.67-35.19 35.91V541.01h193.66l-34.95 34.21z"/></svg>