<svg width="56" height="57" xmlns="http://www.w3.org/2000/svg"><g fill="#231F20"><path d="M32.92 8.78L8.49 56.16h5.02L37.93 8.78zM18.91 9.87l-1.16 1.94a10.724 10.724 0 00-2.84-1.72l1.16-1.94 1.42.86 1.42.86zm7.22-3.68c.16-.27.07-.61-.19-.77-1.38-.83-3.04-.99-4.69-.43-1.45.49-2.73 1.47-3.65 2.79l-1.44-.87a.567.567 0 00-.77.19l-1.58 2.62c-1.78-.51-3.66-.54-5.47-.09-1.34.33-2.58.91-3.69 1.72-1.15.84-2.11 1.89-2.85 3.12C1.06 15.7.58 17.04.38 18.46c-.19 1.36-.12 2.74.21 4.08.33 1.34.91 2.59 1.72 3.7a10.623 10.623 0 007.08 4.28c1.36.19 2.73.12 4.07-.21 1.34-.33 2.58-.91 3.69-1.72 1.15-.84 2.11-1.89 2.85-3.12.64-1.06 1.08-2.22 1.32-3.42.23-1.17.26-2.36.1-3.54-.31-2.22-1.32-4.3-2.85-5.91l1.58-2.62c.16-.27.07-.61-.19-.77l-1.4-.85c1.7-2.38 4.65-3.27 6.8-1.98.27.16.61.07.77-.19m4.23 1.89l-2.02-1.22a.567.567 0 00-.77.19c-.16.27-.07.61.19.77l2.02 1.22c.13.08.28.1.42.06.14-.03.26-.12.34-.26.17-.25.08-.6-.18-.76m.84-3.57a.564.564 0 00-.68-.41l-2.29.57c-.3.07-.48.38-.41.68.07.3.38.48.68.41l2.29-.57c.3-.07.48-.38.41-.68m-4.39-.54c.13.08.28.1.42.06.14-.03.26-.12.34-.26l1.22-2.03c.16-.27.07-.61-.19-.77a.567.567 0 00-.77.19l-1.22 2.03c-.15.28-.07.62.2.78m-2.37-.66c.07.3.38.48.68.41.3-.07.48-.38.41-.68l-.57-2.3a.564.564 0 00-.68-.41c-.3.07-.48.38-.41.68l.57 2.3z"/><path d="M24.5 7.82a.567.567 0 00-.77.19l-1.22 2.03c-.16.27-.07.61.19.77.13.08.28.1.42.06.14-.03.26-.12.34-.26l1.22-2.03c.17-.26.09-.6-.18-.76m2.37.66a.564.564 0 00-.68-.41c-.3.07-.48.38-.41.68l.57 2.3c.07.3.38.48.68.41.3-.07.48-.38.41-.68l-.57-2.3zm16.52 25.97l-1.16 1.94a10.724 10.724 0 00-2.84-1.72l1.16-1.94 1.42.86 1.42.86zm7.22-3.69c.16-.27.07-.61-.19-.77-1.38-.83-3.04-.99-4.69-.43-1.45.48-2.73 1.47-3.65 2.79l-1.44-.87a.567.567 0 00-.77.19l-1.58 2.62c-1.78-.51-3.66-.54-5.47-.09-1.34.33-2.58.91-3.69 1.72-1.15.84-2.11 1.89-2.85 3.12-.74 1.23-1.22 2.57-1.42 3.99-.19 1.36-.12 2.74.21 4.08.33 1.34.91 2.59 1.72 3.7a10.623 10.623 0 007.08 4.28c1.36.19 2.73.12 4.07-.21 1.34-.33 2.58-.91 3.69-1.72 1.15-.84 2.11-1.89 2.85-3.12.64-1.06 1.08-2.22 1.32-3.42.23-1.17.26-2.36.1-3.54-.31-2.22-1.32-4.3-2.85-5.91l1.58-2.62c.16-.27.07-.61-.19-.77l-1.4-.85c1.7-2.38 4.65-3.27 6.8-1.98.27.16.61.07.77-.19m4.22 1.89l-2.02-1.22a.567.567 0 00-.77.19c-.16.27-.07.61.19.77l2.02 1.22c.13.08.28.1.42.06.14-.03.26-.12.34-.26.17-.25.09-.6-.18-.76m.84-3.57a.564.564 0 00-.68-.41l-2.29.57c-.3.07-.48.38-.41.68.07.3.38.48.68.41l2.29-.57c.31-.07.49-.37.41-.68m-4.39-.53c.13.08.28.1.42.06.14-.03.26-.12.34-.26l1.22-2.03c.16-.27.07-.61-.19-.77a.567.567 0 00-.77.19l-1.22 2.03c-.15.27-.06.62.2.78m-2.37-.67c.07.3.38.48.68.41.3-.07.48-.38.41-.68l-.57-2.3a.564.564 0 00-.68-.41c-.3.07-.48.38-.41.68l.57 2.3z"/><path d="M48.98 32.39a.567.567 0 00-.77.19l-1.22 2.03c-.16.27-.07.61.19.77.13.08.28.1.42.06.14-.03.26-.12.34-.26l1.22-2.03c.17-.26.08-.6-.18-.76m2.37.66a.564.564 0 00-.68-.41c-.3.07-.48.38-.41.68l.57 2.3c.07.3.38.48.68.41.3-.07.48-.38.41-.68l-.57-2.3z"/></g></svg>